<svg xmlns="http://www.w3.org/2000/svg" viewBox="0 0 1703.26 1825.96"><defs><style>.cls-1{fill:#171717;}</style></defs><g id="Layer_2" data-name="Layer 2"><g id="Layer_2-2" data-name="Layer 2"><path class="cls-1" d="M1128.75,1826h-550a3.35,3.35,0,0,1-3.34-3.34c0-2.39-.71-10.2-1.61-20.11-6.25-68.87-10.28-134.38,2.59-147.25,6.49-6.49,18.76-9.77,36.47-9.77,18.59,0,37.33,3.54,41.78,4.44,43.53-16.21,112.61-47.8,115.44-64.78,2.79-16.76-59.73-56.06-99.79-76.89a3.34,3.34,0,0,1-1.76-3.48l46.3-294.59L644,1131a3.33,3.33,0,0,1-.45-3.81c1.21-2.26,30.3-55.28,96.73-93.33L702.34,621.35a3.36,3.36,0,0,1,1-2.73L779,547.24l20.29-56.82-54-74.73a3.3,3.3,0,0,1-.56-1.29L702.4,207.08a3.35,3.35,0,0,1,.6-2.67,3.4,3.4,0,0,1,2.41-1.32l51.58-4L736.2,3.68a3.33,3.33,0,0,1,5.95-2.38L853.75,146,965.34,1.3a3.34,3.34,0,0,1,6,2.38L950.5,199.12l51.58,4a3.38,3.38,0,0,1,2.41,1.32,3.31,3.31,0,0,1,.6,2.67L962.78,414.4a3.43,3.43,0,0,1-.55,1.29l-54,74.73,20.29,56.82,75.57,71.38a3.31,3.31,0,0,1,1,2.8l-46.29,408.21c66.39,38,95.47,91,96.69,93.31a3.35,3.35,0,0,1-.46,3.81l-70.83,79.17L1039,1504.7a3.33,3.33,0,0,1-1.52,3.43c-33.62,20.82-85.89,60.13-83.08,77,3.18,19.12,71.33,52.8,98.62,64.77,4.62-.94,23.22-4.43,41.67-4.43,17.72,0,30,3.28,36.47,9.77,12.87,12.87,8.85,78.38,2.59,147.25-.91,9.91-1.61,17.72-1.61,20.11A3.34,3.34,0,0,1,1128.75,1826Zm-546.83-6.67h543.65c.24-3.7.78-9.59,1.49-17.38,3.21-35.42,11.77-129.5-.67-141.93-5.11-5.12-16.09-7.83-31.75-7.83-20.11,0-41.13,4.46-41.34,4.5a3.62,3.62,0,0,1-2-.2c-10.13-4.41-99.1-43.8-103.5-70.21-4.25-25.46,68.89-72.93,84.21-82.57L977.4,1205.51a3.34,3.34,0,0,1,.79-2.82l70.32-78.59c-6.07-10.16-36.08-56.69-94.85-89.76a3.3,3.3,0,0,1-1.68-3.27l46.35-408.74-74.94-70.79a3.33,3.33,0,0,1-.86-1.3L901.38,491a3.33,3.33,0,0,1,.44-3.08l54.58-75.57,41.41-202.91-51.24-3.94a3.38,3.38,0,0,1-2.31-1.19,3.31,3.31,0,0,1-.75-2.49L963.42,14.7l-107,138.75a3.45,3.45,0,0,1-5.28,0L744.07,14.7,764,201.83a3.33,3.33,0,0,1-3.06,3.68l-51.24,3.94,41.41,202.91,54.59,75.57a3.35,3.35,0,0,1,.43,3.08L785,550.24a3.42,3.42,0,0,1-.85,1.3l-75,70.81,37.93,413a3.35,3.35,0,0,1-1.68,3.21c-58.78,33.06-88.79,79.59-94.85,89.75l70.31,78.59a3.31,3.31,0,0,1,.81,2.74l-46.17,293.8c17.86,9.42,105.45,57.06,101.17,82.78-4.42,26.52-108.72,65.87-120.6,70.28a3.57,3.57,0,0,1-1.86.13c-.21,0-21.23-4.5-41.34-4.5-15.65,0-26.64,2.71-31.75,7.83-12.44,12.43-3.88,106.51-.67,141.93C581.14,1809.7,581.68,1815.59,581.92,1819.29Z"/><path class="cls-1" d="M862.21,446.68a3.34,3.34,0,0,1-3.11-2.13L787.18,258.39a3.33,3.33,0,0,1,2.9-4.53l135.39-8.46a3.31,3.31,0,0,1,2.84,1.28,3.37,3.37,0,0,1,.53,3.08L865.38,444.38a3.34,3.34,0,0,1-3.08,2.3ZM795,260.23l66.91,173.18,59-181Z"/><path class="cls-1" d="M946.83,209.75a3.33,3.33,0,0,1-1-.15,371,371,0,0,0-184.49-8.39,3.33,3.33,0,1,1-1.38-6.52,377.69,377.69,0,0,1,187.82,8.54,3.33,3.33,0,0,1-1,6.52Z"/><path class="cls-1" d="M790.28,260.52a3.31,3.31,0,0,1-1.78-.52,158,158,0,0,0-74.62-24.87,3.34,3.34,0,0,1-3.08-3.57,3.3,3.3,0,0,1,3.57-3.08,164.56,164.56,0,0,1,77.7,25.89,3.33,3.33,0,0,1-1.79,6.15Z"/><path class="cls-1" d="M925.67,252.06a3.34,3.34,0,0,1-2-6c22-16.4,48-28.62,73.17-34.42a3.33,3.33,0,1,1,1.49,6.5c-24.27,5.59-49.38,17.41-70.68,33.26A3.31,3.31,0,0,1,925.67,252.06Z"/><path class="cls-1" d="M790.29,264.74a3.34,3.34,0,0,1-2.92-1.7c-12-21.54-31.11-40.63-53.76-53.74a3.33,3.33,0,0,1,3.34-5.77c23.67,13.71,43.65,33.69,56.24,56.26a3.33,3.33,0,0,1-1.28,4.53A3.29,3.29,0,0,1,790.29,264.74Z"/><path class="cls-1" d="M811.43,247.83a3.33,3.33,0,0,1-3.3-2.94,262.36,262.36,0,0,0-12.54-54.32,3.33,3.33,0,0,1,6.3-2.17,268.85,268.85,0,0,1,12.86,55.69,3.35,3.35,0,0,1-2.91,3.71A2.83,2.83,0,0,1,811.43,247.83Z"/><path class="cls-1" d="M841.05,260.52a3.34,3.34,0,0,1-3.32-3c-2-20.48-.43-41.92,4.32-60.38a3.37,3.37,0,0,1,4.06-2.4,3.33,3.33,0,0,1,2.4,4.06c-4.56,17.73-6,38.36-4.14,58.09a3.35,3.35,0,0,1-3,3.64Z"/><path class="cls-1" d="M883.36,252.06a3.32,3.32,0,0,1-3.3-2.92c-2.59-20.52,2-38.94,13.38-53.26a3.34,3.34,0,0,1,5.23,4.15c-10.21,12.87-14.36,29.57-12,48.28a3.33,3.33,0,0,1-2.89,3.72A3,3,0,0,1,883.36,252.06Z"/><path class="cls-1" d="M913,260.52a3.44,3.44,0,0,1-1.45-.33,3.34,3.34,0,0,1-1.54-4.45c7.83-16.18,21.38-34.83,34.54-47.49a3.33,3.33,0,0,1,4.61,4.8c-12.63,12.16-25.64,30.06-33.15,45.59A3.34,3.34,0,0,1,913,260.52Z"/><path class="cls-1" d="M861.27,370.18a3.32,3.32,0,0,1-3.19-2.36l-.78-2.54c-7.4-24.18-17.54-57.31-31.79-81a3.33,3.33,0,1,1,5.7-3.44c12.47,20.71,21.76,48,28.88,70.84,4.16-24.56,11-47.83,18.22-72.21l1.85-6.31a3.34,3.34,0,0,1,6.4,1.88l-1.86,6.32c-8.54,28.93-16.61,56.27-20.12,85.87a3.33,3.33,0,0,1-3,2.93Z"/><path class="cls-1" d="M836.82,290.13a3.33,3.33,0,0,1-1.1-6.47,88.72,88.72,0,0,1,39.54-4.41,3.34,3.34,0,0,1-.72,6.64,82.24,82.24,0,0,0-36.61,4.05A3.32,3.32,0,0,1,836.82,290.13Z"/><path class="cls-1" d="M786.06,188.59h-.14a3.33,3.33,0,0,1-3.2-3.46c1.35-33.6-2.81-66.34-12-94.65a3.34,3.34,0,0,1,5.8-3.09c19.12,24.43,39,51.66,62.64,85.71a3.33,3.33,0,0,1-3.63,5.11c-9.13-2.55-20-.9-29.63.55-6.23.94-11.6,1.75-15.9,1.36l-.43-.07c0,1.78-.1,3.56-.17,5.34A3.33,3.33,0,0,1,786.06,188.59Zm4.22-15.13.31,0c3.46.31,8.74-.47,14.3-1.31,7.31-1.11,16-2.42,24.26-1.77-17.36-24.89-32.73-46.07-47.35-65.25a286.12,286.12,0,0,1,7.83,68.38A2.88,2.88,0,0,1,790.28,173.46Z"/><path class="cls-1" d="M924.94,192.29a3.38,3.38,0,0,1-1.46-.33c-9.44-4.58-19.72-5.67-30.61-6.82-7.49-.79-15.2-1.61-22.68-3.66l-1,1.45a3.33,3.33,0,0,1-5.47-3.81c0-.07.11-.15.15-.22a3.33,3.33,0,0,1,3.72-5.24h0c8.91-12.18,18.73-23.75,28.28-35,13.69-16.11,27.83-32.76,39-51a3.34,3.34,0,0,1,6,2.88c-10.11,27.87-11.14,57.29-12.24,88.43l-.37,10.08a3.34,3.34,0,0,1-3.32,3.2ZM874.4,175.67a151.58,151.58,0,0,0,19.17,2.84c9.39,1,19,2,28.21,5.47l.19-5.2c.85-24.27,1.67-47.49,6.71-70C919.91,120.69,910.33,132,901,143,892,153.54,882.8,164.38,874.4,175.67Z"/><path class="cls-1" d="M959.52,357.83a3.3,3.3,0,0,1-1.73-.48,221.56,221.56,0,0,1-38.68-30.08,3.33,3.33,0,1,1,4.65-4.77,215.31,215.31,0,0,0,37.5,29.15,3.33,3.33,0,0,1-1.74,6.18Z"/><path class="cls-1" d="M955.28,408.6a3.29,3.29,0,0,1-1.72-.48c-14.31-8.63-34.21-20.24-50.68-29.57a3.33,3.33,0,0,1,3.28-5.8c16.52,9.36,36.49,21,50.85,29.66a3.34,3.34,0,0,1-1.73,6.19Z"/><path class="cls-1" d="M934.13,434a3.37,3.37,0,0,1-2.2-.83A125.09,125.09,0,0,0,899,412.59a3.34,3.34,0,0,1,2.51-6.18,130.43,130.43,0,0,1,34.79,21.74,3.34,3.34,0,0,1,.32,4.7A3.37,3.37,0,0,1,934.13,434Z"/><path class="cls-1" d="M748,374.75a3.33,3.33,0,0,1-2.58-5.44,367.65,367.65,0,0,1,51.25-51.24,3.33,3.33,0,1,1,4.2,5.17,361,361,0,0,0-50.29,50.29A3.32,3.32,0,0,1,748,374.75Z"/><path class="cls-1" d="M764.89,408.6a3.26,3.26,0,0,1-1.83-.55,3.33,3.33,0,0,1-.94-4.62,485.58,485.58,0,0,1,42.6-55.38,3.33,3.33,0,1,1,5,4.44,485.62,485.62,0,0,0-42,54.62A3.35,3.35,0,0,1,764.89,408.6Z"/><path class="cls-1" d="M781.82,434a3.34,3.34,0,0,1-2.82-5.12c9.23-14.55,24.45-31.47,38.8-43.12a3.33,3.33,0,0,1,4.2,5.18c-13.83,11.23-28.5,27.52-37.36,41.51A3.35,3.35,0,0,1,781.82,434Z"/><path class="cls-1" d="M853.73,533.82a3.32,3.32,0,0,1-2.76-1.48c-4.12-6.11-10-12.27-15.66-18.22-7-7.35-14.23-14.95-18.35-22.66a3.33,3.33,0,1,1,5.88-3.14c3.69,6.91,10.3,13.85,17.3,21.2,4.37,4.59,8.85,9.3,12.69,14.13,3.7-7.67,9.45-13.66,15.06-19.48,5-5.19,9.7-10.09,12.49-15.75a3.33,3.33,0,1,1,6,2.94c-3.24,6.59-8.54,12.1-13.67,17.43-6.41,6.66-13,13.55-15.77,22.65a3.32,3.32,0,0,1-2.69,2.34A4.21,4.21,0,0,1,853.73,533.82Z"/><path class="cls-1" d="M743.74,759.77a3.34,3.34,0,0,1-.93-6.54c29.17-8.46,57.48-7.41,87.16-5.61-27.11-41-58.28-75.83-88.24-98.54a3.33,3.33,0,1,1,4-5.31c31.91,24.19,65.09,61.75,93.43,105.79a3.31,3.31,0,0,1,.07,3.48,3.21,3.21,0,0,1-3.08,1.65c-31.51-2-61.29-3.81-91.51,4.94A3.33,3.33,0,0,1,743.74,759.77Z"/><path class="cls-1" d="M748,759.77a3.32,3.32,0,0,1-3.16-2.3c-9.55-29-9.16-64.54-8.78-98.91.08-6.94.16-13.82.15-20.59a3.33,3.33,0,0,1,3.33-3.33h0a3.33,3.33,0,0,1,3.33,3.33c0,6.78-.06,13.7-.14,20.67-.38,33.82-.76,68.8,8.44,96.75A3.34,3.34,0,0,1,749,759.6,3.38,3.38,0,0,1,748,759.77Z"/><path class="cls-1" d="M955.29,768.23a3.25,3.25,0,0,1-.44,0,3.35,3.35,0,0,1-2.87-3.74c5.09-38.39,9.92-74.83,9-114.27-8.32,12.09-18.7,24.43-28.8,36.46-18,21.42-36.62,43.58-41.39,62.15a3.33,3.33,0,1,1-6.45-1.66c5.14-20,23.4-41.77,42.74-64.78,12.45-14.83,25.33-30.16,34-44.61a3.34,3.34,0,0,1,6.19,1.55c2.14,44.18-3.38,85.79-8.71,126A3.34,3.34,0,0,1,955.29,768.23Z"/><path class="cls-1" d="M959.53,764a3.42,3.42,0,0,1-.9-.12,250.61,250.61,0,0,0-79.33-8.35,3.33,3.33,0,1,1-.33-6.66,257,257,0,0,1,81.44,8.58,3.34,3.34,0,0,1-.88,6.55Z"/><path class="cls-1" d="M852.7,886.36A3.36,3.36,0,0,1,850,885c-17.83-25-41.35-51.75-66.22-75.33a3.34,3.34,0,1,1,4.59-4.84,553.62,553.62,0,0,1,63.9,71.93c19.08-35.85,37.23-60.79,58.46-80.42a3.34,3.34,0,0,1,4.53,4.9c-21.57,19.94-40,45.65-59.59,83.37a3.32,3.32,0,0,1-2.72,1.78Z"/><path class="cls-1" d="M849.51,959.22a3.33,3.33,0,0,1-2.45-1.08c-20.72-22.53-46.73-52.65-64-85.94a3.33,3.33,0,0,1,5.92-3.06c16.15,31.17,40.31,59.69,60.27,81.56,14.92-19.76,28.62-42.19,41.89-63.92,6.36-10.41,12.66-20.72,19-30.6a3.33,3.33,0,1,1,5.61,3.6c-6.31,9.84-12.58,20.11-18.92,30.47-14.08,23-28.63,46.88-44.71,67.67a3.31,3.31,0,0,1-2.49,1.29Z"/><path class="cls-1" d="M846.22,1195.11h-.34a3.37,3.37,0,0,1-2.61-1.77c-16.87-32.25-48.54-56-72.13-70.19a3.32,3.32,0,0,1-.72-5.13l2.7-2.88c20.31-21.65,41.31-44.05,66-61.05a3.34,3.34,0,0,1,4.45.61c24.91,29.69,53.85,56.88,79.42,74.62a3.32,3.32,0,0,1-.6,5.8c-31.8,13.51-57.6,39.43-73.64,58.8A3.33,3.33,0,0,1,846.22,1195.11Zm-68.14-75.53c22.79,14.18,51.58,36.49,68.73,66.34,15.68-18.3,39.08-41,67.65-54.53-24.13-17.53-50.71-42.69-74-70.09C817.42,1077.66,797.43,1099,778.08,1119.58Z"/><path class="cls-1" d="M717.31,1182.44a3.23,3.23,0,0,1-1.61-.42c-9.18-5.07-37.88-29.59-42-35.24a3.33,3.33,0,0,1-.32-3.36c8.57-18.37,29.41-44.13,42.74-55.76a3.33,3.33,0,0,1,4.4,0,155.67,155.67,0,0,0,15.08,11.16c8.7,5.94,17.7,12.09,23.41,19.4a3.33,3.33,0,1,1-5.25,4.1c-5.08-6.5-13.64-12.34-21.92-18-4.62-3.16-9.37-6.41-13.47-9.75-12.32,11.48-30,33.65-38,49.73,5.79,6.19,26.43,24,36.14,30.39,8.57-10.53,18.73-19.44,28.58-28.07,7.32-6.41,14.89-13.05,21.58-20.18a3.33,3.33,0,1,1,4.86,4.56c-6.92,7.37-14.6,14.12-22,20.63-10.34,9.06-21,18.43-29.57,29.48A3.33,3.33,0,0,1,717.31,1182.44Z"/><path class="cls-1" d="M960.46,1186.65a2.9,2.9,0,0,1-.66-.07,3.28,3.28,0,0,1-2.43-2c-4.42-11.06-11.39-17.31-18.77-23.92-5.56-5-11.3-10.15-15.77-17.44a3.33,3.33,0,1,1,5.68-3.48c4,6.46,9.1,11.07,14.55,16,6.65,6,13.51,12.12,18.47,21.91,18.45-18,27.74-22.31,46.83-31.19l4-1.87a564.29,564.29,0,0,0-37.75-49.37c-21.75,9.95-40,24.34-50.41,39.71a3.33,3.33,0,0,1-5.52-3.73c11.41-16.91,31.62-32.61,55.47-43.07a3.33,3.33,0,0,1,3.83.83,558.27,558.27,0,0,1,42.08,55.18,3.34,3.34,0,0,1-1.37,4.84l-7.52,3.52c-20.08,9.35-28.39,13.22-48.35,33.25A3.3,3.3,0,0,1,960.46,1186.65Z"/><path class="cls-1" d="M925.56,1094.47a3.07,3.07,0,0,1-1.71-.49l-3.31-2.13c-17.54-11.28-39.36-25.31-52.46-41.38a3.33,3.33,0,1,1,5.17-4.21c12.43,15.25,33.76,29,50.9,40l1,.63c6.35-6.9,14.13-15.54,18.88-23.31a3.33,3.33,0,0,1,5.69,3.47c-5.58,9.13-14.75,19-21.45,26.28A3.67,3.67,0,0,1,925.56,1094.47Z"/><path class="cls-1" d="M757.26,1093.47a3.43,3.43,0,0,1-.71-.08,3.28,3.28,0,0,1-2.18-1.62c-3.36-5.92-8.13-8.28-13.19-10.78a47.22,47.22,0,0,1-7.92-4.58,3.34,3.34,0,0,1,4-5.31,40.94,40.94,0,0,0,6.83,3.91c4.68,2.32,9.88,4.89,14,10.39l1.43-1c16.34-11.64,36.66-26.13,49.23-42.29a3.33,3.33,0,1,1,5.26,4.09c-13.17,16.94-33.93,31.74-50.61,43.63l-4.25,3A3.27,3.27,0,0,1,757.26,1093.47Z"/><path class="cls-1" d="M832.59,1220.93a3.33,3.33,0,0,1-2.59-1.23c-6.32-7.81-14.27-14.88-22.69-22.35-9.23-8.21-18.76-16.68-26.24-26.43-11.72,8.21-30.42,21.84-38.7,35.7a3.33,3.33,0,0,1-5.72-3.42c8.5-14.23,25.82-27.45,43.26-39.61a3.34,3.34,0,0,1,4.63.81c7.29,10.27,17.41,19.27,27.2,28,8.25,7.32,16.77,14.9,23.44,23.13a3.33,3.33,0,0,1-2.59,5.43Z"/><path class="cls-1" d="M874.9,1216.71a3.47,3.47,0,0,1-1.61-.41,3.34,3.34,0,0,1-1.31-4.53c7.77-14.13,22.59-27.48,38.67-34.84a3.32,3.32,0,0,1,4,1c5.68,7.2,12.17,11.61,19,16.27s13.88,9.46,20,17.13a3.33,3.33,0,1,1-5.21,4.15c-5.47-6.88-11.81-11.2-18.52-15.76-6.36-4.33-12.91-8.78-18.8-15.6-13.94,7-26.56,18.63-33.31,30.89A3.32,3.32,0,0,1,874.9,1216.71Z"/><path class="cls-1" d="M773.36,1055.93a3.34,3.34,0,0,1-2.52-5.52,316.29,316.29,0,0,1,64.15-56,3.32,3.32,0,0,1,4.42.71c7,8.69,16.83,16.75,26.38,24.55,9.22,7.52,17.92,14.62,24.37,22.36a3.34,3.34,0,0,1-5.13,4.27c-6-7.24-14.49-14.15-23.46-21.47s-18.24-14.89-25.42-23.2a309.85,309.85,0,0,0-60.27,53.18A3.33,3.33,0,0,1,773.36,1055.93Z"/><path class="cls-1" d="M848.36,1271.27a3.34,3.34,0,0,1-2.42-1c-18.69-19.58-41.54-32.16-65.73-45.48a3.33,3.33,0,1,1,3.22-5.84c23.34,12.85,45.45,25,64.21,43.54,14.6-24.55,34.67-35.36,60.06-43.78a3.33,3.33,0,0,1,2.1,6.33c-25.2,8.35-44.79,19.12-58.51,44.52a3.33,3.33,0,0,1-2.49,1.72Z"/><path class="cls-1" d="M852.81,1360.12a3.35,3.35,0,0,1-2.67-1.33l-5-6.71c-16.54-22.07-35.28-47.09-56.89-64.17a3.33,3.33,0,1,1,4.13-5.23c22.3,17.62,41.32,43,58.1,65.41l1.78,2.38c13.85-28,24.41-52.46,32.22-74.73a3.33,3.33,0,0,1,6.29,2.2c-8.35,23.82-19.78,50.1-35,80.34a3.31,3.31,0,0,1-2.67,1.82A1.56,1.56,0,0,1,852.81,1360.12Z"/><path class="cls-1" d="M858,1432.05a3.3,3.3,0,0,1-2.17-.81l-4.87-4.17c-27.76-23.79-56.47-48.4-76.2-80.81a3.33,3.33,0,0,1,5.7-3.46c19.17,31.5,47.47,55.75,74.84,79.21l1.55,1.33c10.87-22.65,27.79-53.08,49.46-76.82a3.33,3.33,0,1,1,4.92,4.49c-22.38,24.54-39.66,56.57-50.21,79.12a3.39,3.39,0,0,1-3,1.92Z"/><path class="cls-1" d="M852.7,1520.9a3.32,3.32,0,0,1-2.5-1.13c-12.28-13.93-27.21-25.56-41.65-36.82-17.93-14-36.46-28.41-50.57-47.59a3.34,3.34,0,0,1,5.37-4c13.56,18.45,31.73,32.61,49.3,46.3,13.52,10.53,27.46,21.4,39.5,34.29,21.8-35.87,52.13-69.39,92.57-102.35a3.33,3.33,0,0,1,4.21,5.17c-41.27,33.63-71.81,67.8-93.36,104.45a3.34,3.34,0,0,1-2.55,1.62Z"/><path class="cls-1" d="M952.11,1736.69H952a3.32,3.32,0,0,1-2.89-1.84c-12.57-25.13-33-45.93-48.36-60a125.56,125.56,0,0,1-14.1,14.63c-9.2,8.53-17.89,16.59-22.3,32.1a3.35,3.35,0,0,1-5.22,1.76c-4.87-3.68-9.85-7.49-14.92-11.37-18.65-14.25-37.91-29-57.08-41.61-4.83,7.32-12.39,14.23-19.75,21-8.32,7.61-16.92,15.48-20.76,23.3a3.34,3.34,0,0,1-5.48.74c-7.46-8.39-17.29-15.28-26.79-21.95s-19.43-13.63-27.37-22.3l-2.53,1.65c-21.15,13.76-37.85,24.63-48.49,49.23a3.36,3.36,0,0,1-4.74,1.57c-17.17-10-31.27-27.43-38.7-47.85a3.33,3.33,0,0,1,6.26-2.28c6.45,17.71,18.24,33,32.65,42.42,11.52-24,29.13-35.5,49.38-48.67l4.93-3.23a3.32,3.32,0,0,1,4.37.64c7.69,9.07,18,16.33,28.07,23.36,8.56,6,17.39,12.21,24.79,19.65,4.84-7.42,12.48-14.4,19.91-21.19,8-7.3,16.22-14.83,20.24-22.3a3.34,3.34,0,0,1,4.75-1.22c20.34,13.19,40.7,28.75,60.39,43.8,3.77,2.88,7.49,5.73,11.15,8.51,5.25-14.41,14.11-22.63,22.71-30.6,5.31-4.93,10.79-10,15.43-16.6a3.35,3.35,0,0,1,5-.56c14.9,13.49,35.79,33.91,49.76,59.11,17.6-28.75,37.55-44.22,56.27-43.78,16.14.4,30.68,12.08,43.24,34.73,11-15,25-23.47,38.68-31.74,5.33-3.23,10.36-6.27,15.21-9.69a3.34,3.34,0,0,1,3.84,5.46c-5,3.54-10.41,6.79-15.61,9.94-14.33,8.68-29.16,17.66-39.65,34.26a3.2,3.2,0,0,1-3,1.55,3.3,3.3,0,0,1-2.81-1.82c-12-23.55-25.45-35.67-40.09-36h-.68c-17.17,0-35.85,16.16-52.7,45.61A3.34,3.34,0,0,1,952.11,1736.69Z"/><path class="cls-1" d="M591.43,1758.26a3.33,3.33,0,0,1-.81-6.56c85-21.37,175.89-16.71,263.78-12.22,75.5,3.86,153.57,7.86,227.25-4.77a3.34,3.34,0,0,1,1.13,6.58c-74.41,12.74-152.86,8.73-228.72,4.85-87.39-4.46-177.75-9.11-261.82,12A3.21,3.21,0,0,1,591.43,1758.26Z"/><path class="cls-1" d="M801.08,1784.18c-22.44,0-44.79-.14-67-.27-27.79-.17-55.59-.32-83.44-.26h0a3.33,3.33,0,0,1,0-6.66c27.85-.07,55.68.09,83.5.25,105.91.62,215.45,1.31,322.24-12.92a3.33,3.33,0,1,1,.87,6.61C972.44,1782.23,886,1784.18,801.08,1784.18Z"/><path class="cls-1" d="M989.14,1500.18a3.33,3.33,0,0,1-2.89-1.66c-5.85-10.08-13.38-22.78-20.65-35-8.79-14.81-17.09-28.81-21.68-36.92a3.34,3.34,0,0,1,5.81-3.28c4.55,8,12.83,22,21.6,36.8,7.28,12.27,14.83,25,20.69,35.09a3.34,3.34,0,0,1-1.21,4.56A3.28,3.28,0,0,1,989.14,1500.18Z"/><path class="cls-1" d="M680.28,1508.63a3.33,3.33,0,0,1-1.85-6.11c31.38-20.82,54.64-41.35,71.13-62.71a3.33,3.33,0,0,1,5.28,4.07c-16.94,22-40.73,43-72.72,64.2A3.38,3.38,0,0,1,680.28,1508.63Z"/><path class="cls-1" d="M849.4,709.52h-.11a3.33,3.33,0,0,1-2.45-1.2c-12.66-15.17-27.05-30.25-41-44.83-16.24-17-33-34.61-47.81-53a3.33,3.33,0,1,1,5.2-4.17q1.41,1.77,2.85,3.52a3.22,3.22,0,0,1-.32-1.28A3.33,3.33,0,0,1,769,605c34.06-1.58,68.14.08,101.11,1.69,25.92,1.25,52.72,2.59,79.67,2.33,1.65-.31,2.85,1,3.25,2.45a3.34,3.34,0,0,1-1.55,3.77c-30.32,17.45-55.7,45.3-80.24,72.23-6.54,7.18-13,14.25-19.41,21A3.3,3.3,0,0,1,849.4,709.52ZM767.14,611c13.64,16.51,28.83,32.42,43.56,47.86,13.12,13.74,26.66,27.93,38.85,42.29,5.53-5.87,11.1-12,16.75-18.17,22.16-24.33,45-49.4,71.81-67.29-23.17-.15-46.08-1.26-68.34-2.35-32.81-1.59-66.74-3.24-100.49-1.68A3.34,3.34,0,0,1,767.14,611Z"/><path class="cls-1" d="M891.82,489H815.67a3.34,3.34,0,0,1,0-6.67h76.15a3.34,3.34,0,0,1,0,6.67Z"/><path class="cls-1" d="M1133,903.62a3.31,3.31,0,0,1-2.66-1.34L990.7,716.12a3.33,3.33,0,0,1-.07-3.9l114.23-165a3,3,0,0,1,.62-.67c6.07-5,149.48-123.39,209-131.89,23.81-3.41,28.58-3.8,30.09-3.8a3.87,3.87,0,0,1,3.78,3.11c.26,2.84-.19,3.5-10.31,5.46l83.24,41.62,112.35-16.65L1697.89,318a3.37,3.37,0,0,1,3.91-.12,3.32,3.32,0,0,1,1.33,3.66l-80.38,287.71a3.35,3.35,0,0,1-.71,1.31L1490.87,758.64a3.18,3.18,0,0,1-.58.52L1321.06,877.63a3.37,3.37,0,0,1-1.47.58l-186.15,25.38ZM997.47,714.05l137,182.67,183.42-25,168.25-117.78,130.39-147.22L1694,329.39,1537,450.22a3.34,3.34,0,0,1-1.55.65l-114.23,16.92a3.31,3.31,0,0,1-2-.31l-93.08-46.54a3.34,3.34,0,0,1-1.21-1c-2.77.38-5.93.82-9.53,1.34-56.26,8-197.23,123.49-205.3,130.13Z"/><path class="cls-1" d="M1146.21,700.92c-31.52,0-67.41-14.3-100.56-61a3.33,3.33,0,0,1,5.44-3.85c37.27,52.54,84.1,69.94,135.46,50.34,85.52-32.67,165-163.93,154.68-255.35a3.33,3.33,0,0,1,6.62-.75c10.64,93.92-71,228.76-158.92,262.32A120,120,0,0,1,1146.21,700.92Z"/><path class="cls-1" d="M1159.83,724.56c-47.13,0-92.59-20.25-130.76-58.86a3.33,3.33,0,1,1,4.74-4.69c58.62,59.3,118.8,61.81,159,53.46,70.08-14.56,132.73-72.89,163.49-152.23,13.49-34.76,18.58-74.24,23-115a3.34,3.34,0,0,1,6.64.72c-4.49,41.25-9.66,81.2-23.43,116.71C1330.92,646.07,1266.41,706,1194.14,721A168.85,168.85,0,0,1,1159.83,724.56Z"/><path class="cls-1" d="M1082.21,704.76a3.33,3.33,0,0,1-3.28-2.79c-1.85-11.27-.23-22.52,4.56-31.7a3.33,3.33,0,1,1,5.91,3.09c-4.13,7.9-5.51,17.68-3.89,27.53a3.34,3.34,0,0,1-2.76,3.83A3.27,3.27,0,0,1,1082.21,704.76Z"/><path class="cls-1" d="M1137.22,721.68a3.34,3.34,0,0,1-2.31-.93c-5.39-5.17-7.33-14.24-5.18-24.25a3.33,3.33,0,1,1,6.51,1.4c-1.65,7.73-.43,14.48,3.29,18a3.33,3.33,0,0,1-2.31,5.74Z"/><path class="cls-1" d="M1190,717.56c-5.1,0-9.22-1.44-12.3-4.27-3.81-3.52-5.73-8.94-5.69-16.11a3.34,3.34,0,0,1,3.33-3.32h0a3.35,3.35,0,0,1,3.32,3.36c0,5.21,1.16,9,3.54,11.17q3.22,3,9.76,2.41a3.29,3.29,0,0,1,3.61,3,3.33,3.33,0,0,1-3,3.61C1191.62,717.52,1190.77,717.56,1190,717.56Z"/><path class="cls-1" d="M1243,709a3.36,3.36,0,0,1-1.47-.34c-12.94-6.4-23.68-17.13-31.08-31a3.34,3.34,0,1,1,5.89-3.14c6.73,12.66,16.46,22.41,28.15,28.19A3.33,3.33,0,0,1,1243,709Z"/><path class="cls-1" d="M1293.76,675.15a3.05,3.05,0,0,1-.67-.07c-18.16-3.69-33.52-14.43-44.43-31.05a3.34,3.34,0,0,1,5.58-3.67c9.91,15.12,23.8,24.87,40.18,28.19a3.33,3.33,0,0,1-.66,6.6Z"/><path class="cls-1" d="M1318.66,628.91A32.62,32.62,0,0,1,1291,614.46a3.34,3.34,0,0,1,5.51-3.76c5.93,8.7,15.31,12.71,26.44,11.26a3.36,3.36,0,0,1,3.73,2.88,3.32,3.32,0,0,1-2.87,3.73A39.41,39.41,0,0,1,1318.66,628.91Z"/><path class="cls-1" d="M1353,577.84l-.37,0a95.52,95.52,0,0,1-30.71-8.78,3.33,3.33,0,0,1,2.91-6,88.35,88.35,0,0,0,28.54,8.15,3.34,3.34,0,0,1-.37,6.65Z"/><path class="cls-1" d="M1374.15,522.83H1340.3a3.33,3.33,0,1,1,0-6.66h33.85a3.33,3.33,0,0,1,0,6.66Z"/><path class="cls-1" d="M1378.38,480.53a3.22,3.22,0,0,1-1.1-.19A274.5,274.5,0,0,0,1348,472a3.33,3.33,0,0,1,1.49-6.5,283.83,283.83,0,0,1,30,8.56,3.34,3.34,0,0,1-1.1,6.49Z"/><path class="cls-1" d="M1374.15,455.14a3.49,3.49,0,0,1-1.05-.17l-12.7-4.23a3.34,3.34,0,0,1,2.12-6.33l12.68,4.23a3.34,3.34,0,0,1-1,6.5Z"/><path class="cls-1" d="M1162.09,678c-17.06,0-32.23-8.6-44.49-25.39a3.33,3.33,0,0,1,5.38-3.93c14.2,19.44,31.84,26.43,52.45,20.75C1229.18,654.66,1287.27,560,1297,514.65c-17.21,12.12-35.5,24.13-53.25,35.79-43.92,28.84-89.35,58.67-125.29,94.13a3.34,3.34,0,0,1-4.69-4.75c36.41-35.92,82.13-65.93,126.32-95,19.94-13.09,40.55-26.63,59.49-40.23a3.34,3.34,0,0,1,5.27,3c-4.12,43.84-67.14,151.59-127.61,168.22A57,57,0,0,1,1162.09,678Z"/><path class="cls-1" d="M1467.23,467.83a3.34,3.34,0,0,1-.45-6.64c72.1-9.81,127.64-20.54,198.16-46.36a3.33,3.33,0,0,1,2.29,6.26c-71.09,26-127,36.84-199.55,46.71Z"/><path class="cls-1" d="M1576.37,619c-17.94,0-35.41-3.89-53.46-7.9-15.29-3.4-31.09-6.91-47.42-7.9a3.33,3.33,0,0,1-3.12-3.53,3.39,3.39,0,0,1,3.52-3.12c16.86,1,32.92,4.59,48.46,8.05,30.11,6.69,58.56,13,89.73.64a3.34,3.34,0,1,1,2.46,6.2A106.93,106.93,0,0,1,1576.37,619Z"/><path class="cls-1" d="M1488.38,751.3a3.31,3.31,0,0,1-.93-.13c-30.28-8.84-68.88-35.19-99.88-56.37l-11.06-7.53a3.33,3.33,0,0,1,3.74-5.52l11.07,7.54c30.62,20.91,68.73,46.94,98,55.48a3.33,3.33,0,0,1-.94,6.53Z"/><path class="cls-1" d="M1323.38,878.23a3.32,3.32,0,0,1-2-.62c-14-10.09-27.8-29.39-42.44-49.82-13.49-18.86-27.45-38.35-42.47-52a3.33,3.33,0,0,1,4.48-4.94c15.54,14.09,29.71,33.87,43.42,53,14.3,20,27.81,38.84,40.91,48.29a3.33,3.33,0,0,1-1.95,6Z"/><path class="cls-1" d="M1294.6,772.12a3.34,3.34,0,0,1-2.72-1.4q-5.94-8.36-11.9-16.66c-11.79-16.45-24-33.45-35.53-50.78a3.33,3.33,0,0,1,5.54-3.7c11.49,17.24,23.65,34.2,35.4,50.6q5.1,7.08,10.16,14.19c15.28-8.94,40.82-24.4,60.81-39.07l-7.55-10c-15.43-20.5-31.39-41.69-45.16-62.78a3.34,3.34,0,0,1,5.59-3.65c13.64,20.91,29.53,42,44.89,62.42l9.58,12.73a3.33,3.33,0,0,1-.67,4.66c-21.77,16.32-51.18,34-66.76,43A3.29,3.29,0,0,1,1294.6,772.12Z"/><path class="cls-1" d="M1400.68,690.47a3.34,3.34,0,0,1-1.83-.54,392.16,392.16,0,0,1-73.69-62.41,3.33,3.33,0,0,1,4.9-4.51,385.3,385.3,0,0,0,70.43,60,561,561,0,0,0,56.29-51.43c-15.16-7-31.79-11-47.91-14.89-21.21-5.13-43.15-10.45-61.9-22.48a3.33,3.33,0,1,1,3.6-5.61c17.81,11.43,38.24,16.38,59.87,21.61,17.94,4.34,36.48,8.83,53.4,17.36a3.34,3.34,0,0,1,1.78,2.4,3.28,3.28,0,0,1-.85,2.85,566.79,566.79,0,0,1-62,56.92A3.34,3.34,0,0,1,1400.68,690.47Z"/><path class="cls-1" d="M1474.85,585.43a3,3,0,0,1-.73-.09c-13.41-3-27.33-4.32-42-5.7-23.92-2.23-48.65-4.54-72-14.78a3.33,3.33,0,1,1,2.68-6.1c22.33,9.8,46.51,12.06,69.89,14.25,13.25,1.23,26.91,2.51,39.84,5.18,2.61-8.86,5.1-18.2,7.51-27.26,4.73-17.77,9.61-36.1,15.83-52.77-31-1-62.82-.86-93.6-.76q-14.08,0-28.12.05a3.33,3.33,0,0,1,0-6.66q14,0,28.1-.06c32.39-.1,65.89-.19,98.52.92a3.33,3.33,0,0,1,3,4.55c-6.88,17.47-12.16,37.28-17.27,56.44-2.7,10.13-5.48,20.6-8.43,30.42A3.36,3.36,0,0,1,1474.85,585.43Z"/><path class="cls-1" d="M1475.69,594.76a3.33,3.33,0,0,1-.1-6.66c7.4-.24,16.54-1.17,26.22-2.16,14.82-1.51,31.48-3.21,46.16-2.84.84-35.34.83-71.14,0-106.49-30.56-3-61-1.88-90.47-.8-24.35.89-49.52,1.81-75,.48a3.35,3.35,0,0,1-3.16-3.5,3.27,3.27,0,0,1,3.5-3.16c25.23,1.31,50.25.4,74.45-.48,30.66-1.12,62.34-2.27,94.34,1.14a3.34,3.34,0,0,1,3,3.22c1,37.54,1,75.6,0,113.14a3.34,3.34,0,0,1-1.07,2.36,3.37,3.37,0,0,1-2.43.88c-15-.75-32.82,1.07-48.57,2.68-9.79,1-19,1.95-26.68,2.19Z"/><path class="cls-1" d="M1449.47,708.35a3.24,3.24,0,0,1-1.36-.3c-24.12-10.89-51.31-19.82-74.62-24.5a3.34,3.34,0,1,1,1.32-6.54c23.24,4.68,50.25,13.48,74.39,24.23,7-4.49,13.76-9,20.47-13.51,11.1-7.44,22.57-15.13,34.89-22.33-11.5-19.92-25-41.46-39.57-54.58a3.34,3.34,0,0,1,4.48-5c15.86,14.35,29.81,36.89,42.52,59.1a3.34,3.34,0,0,1,.33,2.53,3.38,3.38,0,0,1-1.57,2c-13.21,7.55-24.94,15.42-37.37,23.75-7.23,4.85-14.51,9.73-22.12,14.56A3.3,3.3,0,0,1,1449.47,708.35Z"/><path class="cls-1" d="M1339.46,814.23a3.3,3.3,0,0,1-2.12-.76c-23.24-19.1-58.86-35.22-90.72-41.07a3.33,3.33,0,1,1,1.2-6.55c32.43,5.94,67.24,21.46,91.58,40.72,5.41-4.56,11.17-9.27,17-14,12.11-9.91,24.61-20.15,34.58-29.54-1.86-7.34-3.86-14.84-5.9-22.44-5.19-19.44-10.57-39.54-14.19-59.68a3.33,3.33,0,1,1,6.56-1.18c3.57,19.87,8.91,39.83,14.08,59.14,2.21,8.3,4.39,16.45,6.38,24.42a3.33,3.33,0,0,1-.92,3.22c-10.37,9.93-23.58,20.75-36.36,31.22-6.55,5.36-13,10.66-19,15.74A3.3,3.3,0,0,1,1339.46,814.23Z"/><path class="cls-1" d="M1137.17,856.68c-19.32,0-38.58-5.09-61.14-21.39a3.33,3.33,0,1,1,3.91-5.4c37.1,26.81,63.84,21.55,100.86,14.25,12.4-2.44,26.38-5.19,41.93-6.81,5.82-24.9,10.35-47.67,8.47-72.18a3.34,3.34,0,0,1,3.07-3.58,3.38,3.38,0,0,1,3.58,3.07c2,26.22-3,50.18-9.18,76.54a3.33,3.33,0,0,1-2.93,2.55c-16.16,1.54-30.14,4.29-43.66,6.95C1166.15,853.82,1151.64,856.68,1137.17,856.68Z"/><path class="cls-1" d="M1091.41,825.88a3.13,3.13,0,0,1-1-.14,3.29,3.29,0,0,1-2.07-1.79c-20.51-44.21-28.91-83.21-26.42-122.73a3.33,3.33,0,1,1,6.65.42C1066.27,739,1074,776,1092.89,817.78c24.7-14.3,55.45-21.13,87.63-19.5-19-26.14-30.65-53.5-33.92-79.51a3.34,3.34,0,1,1,6.62-.84c3.35,26.8,16.14,55.2,37,82.15a3.31,3.31,0,0,1,.28,3.63,3.26,3.26,0,0,1-3.22,1.72c-34.85-3.13-68.26,4-94.08,20A3.33,3.33,0,0,1,1091.41,825.88Z"/><path class="cls-1" d="M1101.46,632.86h0a18.09,18.09,0,0,1-13.14-5.24c-6-6-7.25-14.91-3.34-24.36,4.3-10.37,15.36-21.4,27.4-21.4,5.72,0,10.83,2.59,14.75,7.49,5.84,7.3,6.78,16,2.66,24.63C1124.62,624.74,1112.44,632.86,1101.46,632.86Zm10.92-44.33c-7.76,0-17.3,7.75-21.24,17.29-1.66,4-3.63,11.57,1.89,17.09a11.45,11.45,0,0,0,8.43,3.28c8.45,0,18.25-6.63,22.32-15.1,2.09-4.34,3.47-10.93-1.87-17.58C1119.27,590.2,1116.06,588.53,1112.38,588.53Z"/><path class="cls-1" d="M1198.39,562.82h0c-12.81,0-24.09-6.07-30.18-16.22-3.53-5.89-3.52-12.6,0-18.89,5.44-9.6,18.31-16.56,30.62-16.56,11.08,0,20.28,5.38,25.86,15.16,4.65,8.12,5,16.31,1.15,23C1221.13,557.53,1210.34,562.82,1198.39,562.82Zm.48-45c-9.9,0-20.57,5.66-24.82,13.18-2.4,4.22-2.44,8.32-.13,12.17,4.95,8.25,13.87,13,24.47,13h0c9.47,0,18.19-4.07,21.72-10.15,2.7-4.65,2.29-10.32-1.17-16.39C1213.37,519.86,1204.94,517.82,1198.87,517.82Z"/><path class="cls-1" d="M1274.19,498h0c-9.67,0-17.26-3.77-21.36-10.62-3.23-5.38-3.36-11-.37-16.29,5-8.78,18.63-15.4,31.76-15.4,10.4,0,18.09,4.3,21.1,11.81a17.32,17.32,0,0,1-1.91,16.75C1297.92,492.34,1285.91,498,1274.19,498Zm10-35.65c-10.56,0-22.21,5.4-26,12a8.84,8.84,0,0,0,.28,9.57c3.85,6.42,11.46,7.38,15.65,7.38,9.48,0,19.45-4.55,23.7-10.82a10.77,10.77,0,0,0,1.24-10.54C1296.47,463.33,1288.65,462.34,1284.22,462.34Z"/><path class="cls-1" d="M570.28,903.62l-.45,0L383.67,878.21a3.33,3.33,0,0,1-1.46-.58L213,759.16a3.24,3.24,0,0,1-.59-.52L81.22,610.56a3.35,3.35,0,0,1-.71-1.31L.12,321.54A3.33,3.33,0,0,1,5.36,318L169.68,444.4,282,461.05l83.24-41.62c-10.13-2-10.56-2.62-10.31-5.46a3.87,3.87,0,0,1,3.78-3.11c1.51,0,6.28.39,30.09,3.8,59.48,8.5,202.89,126.85,209,131.89a3.24,3.24,0,0,1,.61.67l114.24,165a3.35,3.35,0,0,1-.08,3.9L572.94,902.28A3.31,3.31,0,0,1,570.28,903.62ZM385.37,871.71l183.41,25,137-182.67L593.18,551.39c-8.07-6.64-149-122.1-205.31-130.13-3.59-.52-6.75-1-9.52-1.34a3.34,3.34,0,0,1-1.21,1l-93.08,46.54a3.29,3.29,0,0,1-2,.31L167.85,450.87a3.35,3.35,0,0,1-1.54-.65L9.24,329.39,86.72,606.71,217.11,753.93Z"/><path class="cls-1" d="M557.05,700.92a120,120,0,0,1-42.72-8.32C426.46,659,344.78,524.2,355.42,430.28A3.33,3.33,0,0,1,362,431c-10.36,91.42,69.15,222.67,154.67,255.35C568.06,706,614.9,688.58,652.17,636a3.33,3.33,0,0,1,5.44,3.85C624.46,686.62,588.56,700.92,557.05,700.92Z"/><path class="cls-1" d="M543.44,724.56A169,169,0,0,1,509.11,721c-72.27-15-136.77-74.93-168.35-156.36C327,529.1,321.81,489.16,317.34,447.93a3.33,3.33,0,0,1,6.62-.72c4.43,40.77,9.53,80.24,23,115,30.77,79.34,93.41,137.67,163.49,152.23,40.17,8.35,100.36,5.85,159-53.46a3.33,3.33,0,1,1,4.74,4.69C636,704.31,590.55,724.56,543.44,724.56Z"/><path class="cls-1" d="M621.05,704.76a3.27,3.27,0,0,1-.54,0,3.33,3.33,0,0,1-2.75-3.83c1.61-9.85.23-19.63-3.9-27.53a3.33,3.33,0,1,1,5.91-3.09c4.79,9.18,6.41,20.43,4.57,31.7A3.34,3.34,0,0,1,621.05,704.76Z"/><path class="cls-1" d="M566,721.68a3.33,3.33,0,0,1-2.3-5.74c3.71-3.56,4.94-10.31,3.28-18a3.33,3.33,0,1,1,6.51-1.4c2.15,10,.22,19.08-5.18,24.25A3.34,3.34,0,0,1,566,721.68Z"/><path class="cls-1" d="M513.31,717.56c-.82,0-1.68,0-2.56-.12a3.33,3.33,0,0,1-3-3.61,3.29,3.29,0,0,1,3.61-3c4.33.38,7.61-.43,9.76-2.41,2.38-2.2,3.57-6,3.54-11.17a3.36,3.36,0,0,1,3.32-3.36h0a3.34,3.34,0,0,1,3.33,3.32c0,7.17-1.88,12.59-5.69,16.11C522.53,716.12,518.4,717.56,513.31,717.56Z"/><path class="cls-1" d="M460.28,709a3.33,3.33,0,0,1-1.48-6.32c11.68-5.78,21.41-15.53,28.14-28.19a3.34,3.34,0,1,1,5.89,3.14c-7.39,13.9-18.14,24.63-31.08,31A3.36,3.36,0,0,1,460.28,709Z"/><path class="cls-1" d="M409.5,675.15a3.33,3.33,0,0,1-.66-6.6c16.38-3.32,30.27-13.07,40.18-28.19A3.34,3.34,0,0,1,454.6,644c-10.91,16.62-26.27,27.36-44.43,31.05A3.11,3.11,0,0,1,409.5,675.15Z"/><path class="cls-1" d="M384.6,628.91a39.41,39.41,0,0,1-5.15-.34,3.33,3.33,0,0,1,.86-6.61c11.12,1.45,20.51-2.56,26.44-11.26a3.34,3.34,0,0,1,5.51,3.76A32.6,32.6,0,0,1,384.6,628.91Z"/><path class="cls-1" d="M350.26,577.84a3.34,3.34,0,0,1-.36-6.65A88.36,88.36,0,0,0,378.43,563a3.33,3.33,0,0,1,2.91,6,95.53,95.53,0,0,1-30.7,8.78Z"/><path class="cls-1" d="M363,522.83H329.11a3.33,3.33,0,1,1,0-6.66H363a3.33,3.33,0,1,1,0,6.66Z"/><path class="cls-1" d="M324.88,480.53a3.34,3.34,0,0,1-1.1-6.49,283,283,0,0,1,30-8.56,3.33,3.33,0,0,1,1.48,6.5A272.52,272.52,0,0,0,326,480.34,3.22,3.22,0,0,1,324.88,480.53Z"/><path class="cls-1" d="M329.11,455.14a3.33,3.33,0,0,1-1-6.5l12.68-4.23a3.34,3.34,0,0,1,2.11,6.33L330.16,455A3.49,3.49,0,0,1,329.11,455.14Z"/><path class="cls-1" d="M541.18,678a56.75,56.75,0,0,1-15.12-2.14c-60.46-16.63-123.48-124.38-127.6-168.22a3.34,3.34,0,0,1,5.27-3c18.93,13.6,39.55,27.14,59.49,40.23,44.2,29,89.9,59,126.32,95a3.33,3.33,0,0,1-4.68,4.75c-36-35.46-81.37-65.29-125.3-94.13-17.75-11.66-36-23.67-53.25-35.79,9.68,45.32,67.77,140,121.52,154.79,20.62,5.68,38.26-1.31,52.45-20.75a3.33,3.33,0,0,1,5.38,3.93C573.41,669.41,558.23,678,541.18,678Z"/><path class="cls-1" d="M236,467.83l-.45,0C163,457.93,107.11,447.12,36,421.09a3.33,3.33,0,0,1,2.29-6.26c70.52,25.82,126.06,36.55,198.16,46.36a3.34,3.34,0,0,1-.45,6.64Z"/><path class="cls-1" d="M126.89,619a107,107,0,0,1-40.17-7.56,3.34,3.34,0,1,1,2.46-6.2c31.18,12.37,59.62,6,89.73-.64,15.54-3.46,31.6-7,48.46-8.05a3.37,3.37,0,0,1,3.53,3.12,3.33,3.33,0,0,1-3.13,3.53c-16.32,1-32.13,4.5-47.41,7.9C162.31,615.12,144.83,619,126.89,619Z"/><path class="cls-1" d="M214.88,751.3a3.33,3.33,0,0,1-.93-6.53c29.26-8.54,67.37-34.57,98-55.48L323,681.75a3.33,3.33,0,0,1,3.74,5.52L315.7,694.8c-31,21.18-69.61,47.53-99.89,56.37A3.37,3.37,0,0,1,214.88,751.3Z"/><path class="cls-1" d="M379.89,878.23a3.33,3.33,0,0,1-2-6c13.1-9.45,26.61-28.32,40.91-48.29,13.71-19.15,27.88-38.93,43.42-53a3.33,3.33,0,0,1,4.48,4.94c-15,13.61-29,33.1-42.48,52-14.62,20.43-28.45,39.73-42.43,49.82A3.34,3.34,0,0,1,379.89,878.23Z"/><path class="cls-1" d="M408.66,772.12a3.29,3.29,0,0,1-1.68-.45c-15.58-9.06-45-26.71-66.75-43a3.32,3.32,0,0,1-.68-4.66l9.57-12.73c15.36-20.4,31.25-41.5,44.89-62.42a3.34,3.34,0,1,1,5.59,3.65c-13.77,21.1-29.72,42.29-45.16,62.79l-7.54,10c20,14.67,45.53,30.13,60.81,39.07q5.07-7.11,10.16-14.19c11.75-16.4,23.91-33.36,35.4-50.6a3.33,3.33,0,0,1,5.54,3.7c-11.55,17.33-23.74,34.33-35.53,50.78q-6,8.31-11.9,16.66A3.34,3.34,0,0,1,408.66,772.12Z"/><path class="cls-1" d="M302.58,690.47a3.34,3.34,0,0,1-2.06-.71,567.65,567.65,0,0,1-62-56.92,3.34,3.34,0,0,1,.94-5.25c16.92-8.53,35.47-13,53.4-17.36,21.63-5.23,42.07-10.18,59.88-21.61a3.33,3.33,0,0,1,3.6,5.61c-18.76,12-40.69,17.35-61.92,22.48-16.11,3.9-32.73,7.93-47.91,14.89A563,563,0,0,0,302.76,683a385.36,385.36,0,0,0,70.44-60,3.33,3.33,0,0,1,4.91,4.51,392.22,392.22,0,0,1-73.7,62.41A3.39,3.39,0,0,1,302.58,690.47Z"/><path class="cls-1" d="M228.41,585.43a3.34,3.34,0,0,1-3.19-2.37c-2.95-9.82-5.74-20.28-8.44-30.41-5.1-19.16-10.38-39-17.27-56.45a3.33,3.33,0,0,1,3-4.55c32.63-1.11,66.12-1,98.53-.92q14.06,0,28.09.06a3.33,3.33,0,1,1,0,6.66q-14,0-28.12-.05c-30.78-.1-62.55-.19-93.6.76,6.22,16.68,11.1,35,15.83,52.78,2.42,9.06,4.9,18.39,7.51,27.25,12.94-2.67,26.6-4,39.84-5.18,23.38-2.19,47.57-4.45,69.89-14.25a3.33,3.33,0,1,1,2.68,6.1c-23.31,10.24-48,12.55-71.95,14.78-14.72,1.38-28.63,2.68-42.05,5.7A3,3,0,0,1,228.41,585.43Z"/><path class="cls-1" d="M227.57,594.76h-.11c-7.63-.24-16.89-1.19-26.69-2.19-15.75-1.61-33.6-3.43-48.55-2.68a3.37,3.37,0,0,1-2.44-.88,3.32,3.32,0,0,1-1.06-2.36c-1-37.6-1-75.67,0-113.14a3.32,3.32,0,0,1,3-3.22c32-3.42,63.68-2.27,94.33-1.14,24.19.88,49.2,1.79,74.45.48a3.33,3.33,0,0,1,.34,6.66c-25.51,1.33-50.68.41-75-.48-29.47-1.08-59.92-2.19-90.47.8-.86,35.3-.86,71.09,0,106.49,14.71-.38,31.33,1.33,46.15,2.84,9.68,1,18.83,1.92,26.23,2.16a3.33,3.33,0,0,1-.11,6.66Z"/><path class="cls-1" d="M253.78,708.35a3.27,3.27,0,0,1-1.78-.52c-7.61-4.83-14.89-9.71-22.12-14.56-12.43-8.33-24.16-16.2-37.37-23.75a3.38,3.38,0,0,1-1.57-2,3.34,3.34,0,0,1,.33-2.53c12.71-22.22,26.66-44.75,42.53-59.1a3.33,3.33,0,0,1,4.47,5c-14.51,13.11-28.07,34.66-39.56,54.58,12.31,7.2,23.77,14.88,34.88,22.33,6.71,4.5,13.46,9,20.47,13.51,24.14-10.76,51.15-19.55,74.39-24.23a3.34,3.34,0,1,1,1.32,6.54c-23.3,4.68-50.5,13.61-74.61,24.5A3.33,3.33,0,0,1,253.78,708.35Z"/><path class="cls-1" d="M363.8,814.23a3.34,3.34,0,0,1-2.16-.8c-6-5.09-12.46-10.4-19-15.78-12.76-10.45-26-21.26-36.32-31.18a3.33,3.33,0,0,1-.93-3.22c2-8,4.17-16.1,6.39-24.38,5.16-19.32,10.5-39.3,14.08-59.18a3.33,3.33,0,0,1,6.56,1.18c-3.63,20.15-9,40.27-14.2,59.72-2,7.59-4,15.07-5.89,22.4,9.95,9.38,22.44,19.61,34.54,29.51,5.83,4.78,11.6,9.5,17,14.07,24.35-19.26,59.15-34.78,91.58-40.72a3.33,3.33,0,1,1,1.2,6.55c-31.87,5.85-67.48,22-90.72,41.07A3.38,3.38,0,0,1,363.8,814.23Z"/><path class="cls-1" d="M566.09,856.68c-14.47,0-29-2.86-44.91-6-13.52-2.66-27.5-5.41-43.66-6.95a3.33,3.33,0,0,1-2.93-2.55c-6.21-26.36-11.19-50.32-9.18-76.54a3.33,3.33,0,1,1,6.65.51c-1.88,24.51,2.65,47.28,8.48,72.18,15.53,1.62,29.52,4.37,41.93,6.81,37,7.29,63.75,12.56,100.86-14.25a3.33,3.33,0,1,1,3.9,5.4C604.67,851.58,585.41,856.68,566.09,856.68Z"/><path class="cls-1" d="M611.84,825.88a3.32,3.32,0,0,1-1.75-.5c-25.83-16-59.25-23.09-94.08-20a3.27,3.27,0,0,1-3.23-1.72,3.33,3.33,0,0,1,.29-3.63c20.83-27,33.61-55.35,37-82.15a3.34,3.34,0,1,1,6.62.84c-3.27,26-15,53.37-33.91,79.51,32.16-1.63,62.92,5.2,87.61,19.5C629.27,776,637,739,634.64,701.64a3.34,3.34,0,1,1,6.66-.42c2.48,39.52-5.92,78.52-26.43,122.73a3.32,3.32,0,0,1-2.07,1.79A3.14,3.14,0,0,1,611.84,825.88Z"/><path class="cls-1" d="M601.81,632.86c-11,0-23.17-8.12-28.34-18.88-4.12-8.58-3.18-17.33,2.66-24.63,3.92-4.9,9-7.49,14.75-7.49,12,0,23.1,11,27.4,21.4,3.91,9.45,2.7,18.33-3.34,24.36A18.1,18.1,0,0,1,601.81,632.86Zm-10.93-44.33c-3.68,0-6.89,1.67-9.54,5-5.32,6.65-4,13.24-1.86,17.58,4.07,8.47,13.88,15.1,22.33,15.1a11.44,11.44,0,0,0,8.42-3.28c5.52-5.52,3.56-13.08,1.89-17.09C608.18,596.28,598.65,588.53,590.88,588.53Z"/><path class="cls-1" d="M504.87,562.82c-11.95,0-22.74-5.29-27.49-13.47-3.9-6.73-3.49-14.92,1.15-23,5.59-9.78,14.77-15.16,25.86-15.16,12.31,0,25.19,7,30.62,16.56,3.56,6.29,3.58,13,0,18.89C529,556.75,517.68,562.82,504.87,562.82Zm-.48-45c-6.08,0-14.5,2-20.07,11.79-3.47,6.07-3.87,11.74-1.17,16.39,3.52,6.07,12.25,10.15,21.72,10.15,10.6,0,19.52-4.73,24.47-13,2.31-3.85,2.27-7.95-.13-12.17C525,523.48,514.29,517.82,504.39,517.82Z"/><path class="cls-1" d="M429.08,498c-11.73,0-23.74-5.65-29.23-13.75a17.29,17.29,0,0,1-1.91-16.75c3-7.51,10.7-11.81,21.09-11.81,13.14,0,26.8,6.62,31.77,15.41,3,5.28,2.86,10.9-.36,16.28C446.33,494.22,438.74,498,429.08,498ZM419,462.34c-4.42,0-12.24,1-14.9,7.62a10.77,10.77,0,0,0,1.24,10.54c4.25,6.27,14.22,10.82,23.71,10.82,4.18,0,11.79-1,15.64-7.38a8.84,8.84,0,0,0,.28-9.57C441.24,467.74,429.6,462.34,419,462.34Z"/></g></g></svg>